<?xml version="1.0" encoding="utf-8"?>
<svg version="1.1" xmlns:xlink="http://www.w3.org/1999/xlink" width="29px" height="49px" xmlns="http://www.w3.org/2000/svg">
  <g transform="matrix(1 0 0 1 -1212 -6874 )">
    <path d="M 28.501718213058417 23.370741482965933  C 28.833906071019477 23.698062792251168  29 24.07448229792919  29 24.5  C 29 24.925517702070806  28.833906071019477 25.30193720774883  28.501718213058417 25.629258517034067  L 5.281786941580756 48.50901803607214  C 4.949599083619702 48.83633934535738  4.56758304696449 49  4.13573883161512 49  C 3.703894616265751 49  3.3218785796105386 48.83633934535738  2.9896907216494846 48.50901803607214  L 0.4982817869415808 46.054108216432866  C 0.16609392898052702 45.72678690714763  0 45.350367401469605  0 44.9248496993988  C 0 44.499331997327985  0.16609392898052702 44.12291249164997  0.4982817869415808 43.79559118236473  L 20.080756013745702 24.5  L 0.4982817869415808 5.2044088176352705  C 0.16609392898052702 4.877087508350031  0 4.5006680026720085  0 4.075150300601203  C 0 3.649632598530388  0.16609392898052702 3.2732130928523655  0.4982817869415808 2.9458917835671317  L 2.9896907216494846 0.4909819639278562  C 3.3218785796105386 0.16366065464261692  3.703894616265751 0  4.13573883161512 0  C 4.56758304696449 0  4.949599083619702 0.16366065464261692  5.281786941580756 0.4909819639278562  L 28.501718213058417 23.370741482965933  Z " fill-rule="nonzero" fill="#000000" stroke="none" transform="matrix(1 0 0 1 1212 6874 )" />
  </g>
</svg>