<?xml version="1.0" encoding="utf-8"?>
<svg version="1.1" xmlns:xlink="http://www.w3.org/1999/xlink" width="29px" height="49px" xmlns="http://www.w3.org/2000/svg">
  <g transform="matrix(1 0 0 1 -140 -6875 )">
    <path d="M 28.501718213058417 2.9458917835671317  C 28.833906071019477 3.2732130928523655  29 3.649632598530388  29 4.075150300601203  C 29 4.5006680026720085  28.833906071019477 4.877087508350031  28.501718213058417 5.2044088176352705  L 8.919243986254296 24.5  L 28.501718213058417 43.79559118236473  C 28.833906071019477 44.12291249164997  29 44.499331997327985  29 44.9248496993988  C 29 45.350367401469605  28.833906071019477 45.72678690714763  28.501718213058417 46.054108216432866  L 26.010309278350515 48.50901803607214  C 25.678121420389463 48.83633934535738  25.296105383734254 49  24.86426116838488 49  C 24.432416953035514 49  24.0504009163803 48.83633934535738  23.718213058419245 48.50901803607214  L 0.4982817869415808 25.629258517034067  C 0.16609392898052702 25.30193720774883  0 24.925517702070806  0 24.5  C 0 24.07448229792919  0.16609392898052702 23.698062792251168  0.4982817869415808 23.370741482965933  L 23.718213058419245 0.4909819639278562  C 24.0504009163803 0.16366065464261692  24.432416953035514 0  24.86426116838488 0  C 25.296105383734254 0  25.678121420389463 0.16366065464261692  26.010309278350515 0.4909819639278562  L 28.501718213058417 2.9458917835671317  Z " fill-rule="nonzero" fill="#000000" stroke="none" transform="matrix(1 0 0 1 140 6875 )" />
  </g>
</svg>