<?xml version="1.0" encoding="utf-8"?>
<svg version="1.1" xmlns:xlink="http://www.w3.org/1999/xlink" width="357px" height="289px" xmlns="http://www.w3.org/2000/svg">
  <g transform="matrix(1 0 0 1 -121 -2303 )">
    <path d="M 121 2303  L 478 2303  L 478 2592  L 121 2592  L 121 2303  " fill-rule="nonzero" fill="#cccccc" stroke="none" />
    <path d="M 141 2323  L 458 2323  L 458 2572  L 141 2572  L 141 2323  " fill-rule="nonzero" fill="#ffffff" stroke="none" />
    <path d="M 328.315 2389.7  C 316.17699999999996 2389.7  306.64 2380.1629999999996  306.64 2368.0249999999996  C 306.64 2355.8869999999997  316.17699999999996 2346.35  328.315 2346.35  C 340.45300000000003 2346.35  349.99 2355.8869999999997  349.99 2368.0249999999996  C 349.99 2380.1629999999996  340.45300000000003 2389.7  328.315 2389.7  " fill-rule="nonzero" fill="#cccccc" stroke="none" />
    <path d="M 148 2565  L 148 2435.75  L 223.75 2377  L 329.79999999999995 2450.8571428571427  L 390.4 2412.25  L 451 2450.8571428571427  L 451 2565  L 148 2565  " fill-rule="nonzero" fill="#169bd5" stroke="none" />
  </g>
</svg>