<?xml version="1.0" encoding="utf-8"?>
<svg version="1.1" xmlns:xlink="http://www.w3.org/1999/xlink" width="33px" height="36px" xmlns="http://www.w3.org/2000/svg">
  <g transform="matrix(1 0 0 1 -217 -1842 )">
    <path d="M 2.5384615384615388 27.64285714285714  L 2.5384615384615388 33.42857142857143  L 8.25 33.42857142857143  L 8.25 27.64285714285714  L 2.5384615384615388 27.64285714285714  Z M 9.519230769230768 27.64285714285714  L 9.519230769230768 33.42857142857143  L 15.865384615384615 33.42857142857143  L 15.865384615384615 27.64285714285714  L 9.519230769230768 27.64285714285714  Z M 2.5384615384615388 19.92857142857143  L 2.5384615384615388 26.35714285714286  L 8.25 26.35714285714286  L 8.25 19.92857142857143  L 2.5384615384615388 19.92857142857143  Z M 9.519230769230768 19.92857142857143  L 9.519230769230768 26.35714285714286  L 15.865384615384615 26.35714285714286  L 15.865384615384615 19.92857142857143  L 9.519230769230768 19.92857142857143  Z M 2.5384615384615388 12.857142857142856  L 2.5384615384615388 18.64285714285714  L 8.25 18.64285714285714  L 8.25 12.857142857142856  L 2.5384615384615388 12.857142857142856  Z M 17.134615384615387 27.64285714285714  L 17.134615384615387 33.42857142857143  L 23.48076923076923 33.42857142857143  L 23.48076923076923 27.64285714285714  L 17.134615384615387 27.64285714285714  Z M 9.519230769230768 12.857142857142856  L 9.519230769230768 18.64285714285714  L 15.865384615384615 18.64285714285714  L 15.865384615384615 12.857142857142856  L 9.519230769230768 12.857142857142856  Z M 24.75 27.64285714285714  L 24.75 33.42857142857143  L 30.461538461538463 33.42857142857143  L 30.461538461538463 27.64285714285714  L 24.75 27.64285714285714  Z M 17.134615384615387 19.92857142857143  L 17.134615384615387 26.35714285714286  L 23.48076923076923 26.35714285714286  L 23.48076923076923 19.92857142857143  L 17.134615384615387 19.92857142857143  Z M 9.965444711538462 9.45200892857143  C 10.091045673076923 9.324776785714285  10.153846153846155 9.174107142857139  10.153846153846155 9  L 10.153846153846155 3.214285714285715  C 10.153846153846155 3.0401785714285716  10.091045673076923 2.889508928571427  9.965444711538462 2.762276785714285  C 9.839843750000002 2.6350446428571392  9.69110576923077 2.5714285714285703  9.519230769230768 2.5714285714285703  L 8.25 2.5714285714285703  C 8.078125 2.5714285714285703  7.92938701923077 2.6350446428571392  7.8037860576923075 2.762276785714285  C 7.678185096153845 2.889508928571427  7.615384615384616 3.0401785714285716  7.615384615384616 3.214285714285715  L 7.615384615384616 9  C 7.615384615384616 9.174107142857139  7.678185096153845 9.324776785714285  7.8037860576923075 9.45200892857143  C 7.92938701923077 9.579241071428571  8.078125 9.642857142857144  8.25 9.642857142857144  L 9.519230769230768 9.642857142857144  C 9.69110576923077 9.642857142857144  9.839843750000002 9.579241071428571  9.965444711538462 9.45200892857143  Z M 24.75 19.92857142857143  L 24.75 26.35714285714286  L 30.461538461538463 26.35714285714286  L 30.461538461538463 19.92857142857143  L 24.75 19.92857142857143  Z M 17.134615384615387 12.857142857142856  L 17.134615384615387 18.64285714285714  L 23.48076923076923 18.64285714285714  L 23.48076923076923 12.857142857142856  L 17.134615384615387 12.857142857142856  Z M 24.75 12.857142857142856  L 24.75 18.64285714285714  L 30.461538461538463 18.64285714285714  L 30.461538461538463 12.857142857142856  L 24.75 12.857142857142856  Z M 25.19621394230769 9.45200892857143  C 25.321814903846157 9.324776785714285  25.384615384615387 9.174107142857139  25.384615384615387 9  L 25.384615384615387 3.214285714285715  C 25.384615384615387 3.0401785714285716  25.321814903846157 2.889508928571427  25.19621394230769 2.762276785714285  C 25.070612980769234 2.6350446428571392  24.921875 2.5714285714285703  24.75 2.5714285714285703  L 23.48076923076923 2.5714285714285703  C 23.308894230769234 2.5714285714285703  23.160156250000004 2.6350446428571392  23.034555288461537 2.762276785714285  C 22.90895432692308 2.889508928571427  22.846153846153847 3.0401785714285716  22.846153846153847 3.214285714285715  L 22.846153846153847 9  C 22.846153846153847 9.174107142857139  22.90895432692308 9.324776785714285  23.034555288461537 9.45200892857143  C 23.160156250000004 9.579241071428571  23.308894230769234 9.642857142857144  23.48076923076923 9.642857142857144  L 24.75 9.642857142857144  C 24.921875 9.642857142857144  25.070612980769234 9.579241071428571  25.19621394230769 9.45200892857143  Z M 32.24639423076923 5.90625  C 32.74879807692308 6.415178571428571  33 7.017857142857142  33 7.714285714285715  L 33 33.42857142857143  C 33 34.125  32.74879807692308 34.72767857142857  32.24639423076923 35.236607142857146  C 31.743990384615387 35.745535714285715  31.149038461538463 36  30.461538461538463 36  L 2.5384615384615388 36  C 1.8509615384615388 36  1.2560096153846154 35.745535714285715  0.7536057692307692 35.236607142857146  C 0.2512019230769231 34.72767857142857  0 34.125  0 33.42857142857143  L 0 7.714285714285715  C 0 7.017857142857142  0.2512019230769231 6.415178571428571  0.7536057692307692 5.90625  C 1.2560096153846154 5.397321428571424  1.8509615384615388 5.142857142857144  2.5384615384615388 5.142857142857144  L 5.0769230769230775 5.142857142857144  L 5.0769230769230775 3.214285714285715  C 5.0769230769230775 2.3303571428571446  5.3876201923076925 1.5736607142857122  6.0090144230769225 0.9441964285714297  C 6.630408653846155 0.31473214285714324  7.377403846153847 0  8.25 0  L 9.519230769230768 0  C 10.391826923076923 0  11.138822115384617 0.31473214285714324  11.760216346153845 0.9441964285714297  C 12.381610576923078 1.5736607142857122  12.692307692307693 2.3303571428571446  12.692307692307693 3.214285714285715  L 12.692307692307693 5.142857142857144  L 20.30769230769231 5.142857142857144  L 20.30769230769231 3.214285714285715  C 20.30769230769231 2.3303571428571446  20.618389423076923 1.5736607142857122  21.239783653846153 0.9441964285714297  C 21.861177884615387 0.31473214285714324  22.608173076923077 0  23.48076923076923 0  L 24.75 0  C 25.622596153846153 0  26.369591346153847 0.31473214285714324  26.990985576923077 0.9441964285714297  C 27.61237980769231 1.5736607142857122  27.923076923076923 2.3303571428571446  27.923076923076923 3.214285714285715  L 27.923076923076923 5.142857142857144  L 30.461538461538463 5.142857142857144  C 31.149038461538463 5.142857142857144  31.743990384615387 5.397321428571424  32.24639423076923 5.90625  Z " fill-rule="nonzero" fill="#000000" stroke="none" transform="matrix(1 0 0 1 217 1842 )" />
  </g>
</svg>