<?xml version="1.0" encoding="utf-8"?>
<svg version="1.1" xmlns:xlink="http://www.w3.org/1999/xlink" width="66px" height="66px" xmlns="http://www.w3.org/2000/svg">
  <g transform="matrix(1 0 0 1 -112 -1646 )">
    <path d="M 38.11328125 16.88671875  C 38.37109375 17.14453125  38.5 17.473958333333325  38 17.875000000000004  L 38 37.125  C 38.5 37.526041666666664  38.37109375 37.85546874999999  38.11328125 38.11328124999999  C 37.85546875 38.37109374999999  37.52604166666667 38.49999999999999  37.125 38  L 23.375 38  C 22.97395833333334 38.49999999999999  22.64453125 38.37109374999999  22.38671875 38.11328124999999  C 22.12890625 37.85546874999999  22 37.526041666666664  22 37.125  L 22 34.37499999999999  C 22 33.97395833333333  22.12890625 33.64453125  22.38671875 33.38671875  C 22.64453125 33.12890625  22.97395833333334 33  23.375 33  L 33 33  L 33 17.875000000000004  C 33 17.473958333333325  33.12890625 17.14453125  33.38671875 16.88671875  C 33.64453125000001 16.62890625  33.973958333333336 16.5  34.375 16.5  L 37.125 16.5  C 37.52604166666667 16.5  37.85546875 16.62890625  38.11328125 16.88671875  Z M 53.23828125 44.73046875  C 55.329427083333336 41.14973958333333  56.375 37.239583333333336  56.375 33  C 56.375 28.760416666666664  55.329427083333336 24.850260416666664  53.23828125 21.26953125  C 51.14713541666667 17.68880208333333  48.31119791666667 14.852864583333327  44.73046875 12.76171875  C 41.149739583333336 10.670572916666666  37.239583333333336 9.625000000000002  33 9.625000000000002  C 28.760416666666668 9.625000000000002  24.850260416666668 10.670572916666666  21.26953125 12.76171875  C 17.688802083333336 14.852864583333327  14.852864583333334 17.68880208333333  12.76171875 21.26953125  C 10.670572916666668 24.850260416666664  9.625 28.760416666666664  9.625 33  C 9.625 37.239583333333336  10.670572916666668 41.14973958333333  12.76171875 44.73046875  C 14.852864583333334 48.31119791666666  17.688802083333336 51.147135416666664  21.26953125 53.23828125  C 24.850260416666668 55.329427083333336  28.760416666666668 56.375  33 56.375  C 37.239583333333336 56.375  41.149739583333336 55.329427083333336  44.73046875 53.23828125  C 48.31119791666667 51.147135416666664  51.14713541666667 48.31119791666666  53.23828125 44.73046875  Z M 61.57421875 16.435546875  C 64.52473958333333 21.49153645833333  66 27.013020833333325  66 33  C 66 38.98697916666667  64.52473958333333 44.50846354166666  61.57421875 49.564453125  C 58.62369791666667 54.620442708333336  54.620442708333336 58.623697916666664  49.564453125 61.57421875  C 44.50846354166667 64.52473958333334  38.98697916666667 66  33 66  C 27.013020833333336 66  21.491536458333336 64.52473958333334  16.435546875 61.57421875  C 11.379557291666668 58.623697916666664  7.376302083333334 54.620442708333336  4.42578125 49.564453125  C 1.4752604166666665 44.50846354166666  0 38.98697916666667  0 33  C 0 27.013020833333325  1.4752604166666665 21.49153645833333  4.42578125 16.435546875  C 7.376302083333334 11.379557291666666  11.379557291666668 7.376302083333327  16.435546875 4.425781249999997  C 21.491536458333336 1.475260416666661  27.013020833333336 0  33 0  C 38.98697916666667 0  44.50846354166667 1.475260416666661  49.564453125 4.425781249999997  C 54.620442708333336 7.376302083333327  58.62369791666667 11.379557291666666  61.57421875 16.435546875  Z " fill-rule="nonzero" fill="#000000" stroke="none" transform="matrix(1 0 0 1 112 1646 )" />
  </g>
</svg>