<?xml version="1.0" encoding="utf-8"?>
<svg version="1.1" xmlns:xlink="http://www.w3.org/1999/xlink" width="358px" height="229px" xmlns="http://www.w3.org/2000/svg">
  <g transform="matrix(1 0 0 1 -470 -1151 )">
    <path d="M 470 1151  L 828 1151  L 828 1380  L 470 1380  L 470 1151  " fill-rule="nonzero" fill="#cccccc" stroke="none" />
    <path d="M 486 1167  L 812 1167  L 812 1364  L 486 1364  L 486 1167  " fill-rule="nonzero" fill="#ffffff" stroke="none" />
    <path d="M 673.335 1219.6999999999998  C 663.717 1219.6999999999998  656.16 1212.1429999999998  656.16 1202.5249999999999  C 656.16 1192.907  663.717 1185.35  673.335 1185.35  C 682.953 1185.35  690.51 1192.907  690.51 1202.5249999999999  C 690.51 1212.1429999999998  682.953 1219.6999999999998  673.335 1219.6999999999998  " fill-rule="nonzero" fill="#cccccc" stroke="none" />
    <path d="M 492 1359  L 492 1256.7  L 570.75 1210.2  L 681 1287.613407821229  L 744 1238.1  L 807 1287.613407821229  L 807 1359  L 492 1359  " fill-rule="nonzero" fill="#169bd5" stroke="none" />
  </g>
</svg>